HIERARCHY
ROOT hip
{
	OFFSET 0.000000 0.000000 0.000000 
	CHANNELS 6 Xposition Yposition Zposition Xrotation Zrotation Yrotation
	JOINT abdomen
	{
		OFFSET 0.000000 3.402643 0.000000 
		CHANNELS 3 Xrotation Zrotation Yrotation
		JOINT chest
		{
			OFFSET 0.000000 8.438565 -0.680529 
			CHANNELS 3 Xrotation Zrotation Yrotation
			JOINT neck
			{
				OFFSET 0.000000 10.207942 -0.272212 
				CHANNELS 3 Xrotation Zrotation Yrotation
				JOINT head
				{
					OFFSET 0.000000 3.130431 0.000000 
					CHANNELS 3 Xrotation Zrotation Yrotation
					End Site
					{
						OFFSET 0.000000 3.130435 0.000000 
					}
				}
			}
			JOINT lCollar
			{
				OFFSET 3.470700 6.669187 -0.816635 
				CHANNELS 3 Yrotation Zrotation Xrotation
				JOINT lShldr
				{
					OFFSET 3.198488 0.000000 0.000000 
					CHANNELS 3 Zrotation Yrotation Xrotation
					JOINT lForeArm
					{
						OFFSET 10.139888 0.000000 0.000000 
						CHANNELS 3 Yrotation Zrotation Xrotation
						JOINT lHand
						{
							OFFSET 8.370511 0.000000 0.000000 
							CHANNELS 3 Zrotation Yrotation Xrotation
							End Site
							{
								OFFSET 4.083176 0.000000 0.000000 
							}
						}
					}
				}
			}
			JOINT rCollar
			{
				OFFSET -3.470700 6.669187 -0.816635 
				CHANNELS 3 Yrotation Zrotation Xrotation
				JOINT rShldr
				{
					OFFSET -3.198488 0.000000 0.000000 
					CHANNELS 3 Zrotation Yrotation Xrotation
					JOINT rForeArm
					{
						OFFSET -10.139888 0.000000 0.000000 
						CHANNELS 3 Yrotation Zrotation Xrotation
						JOINT rHand
						{
							OFFSET -8.370511 0.000000 0.000000 
							CHANNELS 3 Zrotation Yrotation Xrotation
							End Site
							{
								OFFSET -4.083176 0.000000 0.000000 
							}
						}
					}
				}
			}
		}
	}
	JOINT lThigh
	{
		OFFSET 5.308129 -1.633274 1.361059 
		CHANNELS 3 Xrotation Zrotation Yrotation
		JOINT lShin
		{
			OFFSET -2.041588 -20.007561 0.000000 
			CHANNELS 3 Xrotation Zrotation Yrotation
			JOINT lFoot
			{
				OFFSET 0.000000 -19.190928 -1.224953 
				CHANNELS 3 Xrotation Yrotation Zrotation
				End Site
				{
					OFFSET 0.000000 -2.449906 4.627600 
				}
			}
		}
	}
	JOINT rThigh
	{
		OFFSET -5.308129 -1.633274 1.361059 
		CHANNELS 3 Xrotation Zrotation Yrotation
		JOINT rShin
		{
			OFFSET 2.041588 -20.007561 0.000000 
			CHANNELS 3 Xrotation Zrotation Yrotation
			JOINT rFoot
			{
				OFFSET 0.000000 -19.190928 -1.224953 
				CHANNELS 3 Xrotation Yrotation Zrotation
				End Site
				{
					OFFSET 0.000000 -2.449906 4.627600 
				}
			}
		}
	}
}
MOTION
Frames: 13
Frame Time: 0.016667
23.419710 13.507214 34.022797 -106.486000 10.323300 -48.784401 -26.361900 3.061810 -15.066800 23.452801 8.895060 -5.312870 0.732652 18.068100 -10.178700 10.000900 10.741000 -2.580410 2.000000 -2.000000 0.000000 13.554300 -38.350300 120.484001 106.885002 -0.172302 0.149972 0.074445 -0.077651 -165.867004 -2.000000 2.000000 0.000000 75.937698 19.656200 113.918999 -132.119003 0.129703 0.084413 -0.083514 0.076379 -165.348999 35.646854 1.579001 37.944290 109.967224 -1.555660 4.002338 -34.886745 -4.287822 -3.767449 -1.526027 -21.542896 31.322643 128.644821 2.104600 -3.328140 -30.325687 5.706975 10.339504 
23.375786 13.615168 33.950336 -106.511002 10.433200 -48.958000 -26.529301 2.940120 -14.967800 23.438801 8.348950 -5.302590 1.189300 18.157200 -9.938570 10.141400 10.796300 -2.499980 2.000000 -2.000000 0.000000 20.568600 -42.504002 117.571999 96.289597 -0.198801 0.155409 0.072153 -0.073356 -164.128998 -2.000000 2.000000 0.000000 76.035599 19.841700 113.977997 -132.276001 0.129446 0.084180 -0.083203 0.075801 -165.115005 34.579823 0.726183 37.016174 109.216568 -1.461301 4.014156 -32.910469 -3.953890 -3.251525 -2.047890 -22.701530 30.832157 128.248367 2.071597 -3.354354 -30.101351 6.485112 10.425353 
23.329056 13.707510 33.911472 -106.818001 10.348000 -49.150700 -26.621799 2.836780 -14.963800 23.386700 7.959160 -5.339970 1.621950 18.209000 -9.654000 10.282300 10.870900 -2.397660 2.000000 -2.000000 0.000000 28.406300 -46.365299 113.875000 84.258301 -0.228527 0.136077 0.068782 -0.066391 -161.365005 -2.000000 2.000000 0.000000 75.898598 20.281401 113.803001 -132.197998 0.129574 0.084297 -0.083164 0.075728 -165.085999 33.631516 -0.046461 35.901413 108.295692 -1.311198 4.015320 -30.191103 -3.775307 -2.694849 -2.179723 -24.023249 30.251854 127.888901 2.019154 -3.366132 -29.896988 7.286413 10.573168 
23.233231 13.844564 33.879005 -107.364998 9.898030 -49.337200 -26.579500 2.801000 -15.233000 23.366501 7.891010 -5.472950 2.200070 17.968901 -9.258270 10.460800 10.847400 -2.267170 2.000000 -2.000000 0.000000 34.495098 -48.936001 111.242996 72.637299 -0.255649 0.130537 0.064888 -0.057054 -157.751999 -2.000000 2.000000 0.000000 75.605698 21.209200 113.677002 -131.904999 0.130057 0.084731 -0.083242 0.075873 -165.143997 32.726467 -0.291534 34.646255 106.874428 -1.137751 4.017311 -25.494114 -4.291792 -2.009323 -1.522645 -25.246572 29.455462 127.421616 1.969070 -3.382961 -29.609682 8.036508 10.682735 
23.074720 14.052837 33.825085 -107.980003 9.331240 -49.535900 -26.471901 2.798500 -15.726300 23.485600 8.007240 -5.665770 2.943110 17.532301 -8.756340 10.676900 10.735600 -2.121770 2.000000 -2.000000 0.000000 38.304798 -50.567799 110.180000 61.328602 -0.280444 0.120006 0.051114 -0.045134 -153.259995 -2.000000 2.000000 0.000000 75.411201 22.586100 113.757004 -131.533005 0.130670 0.085279 -0.083281 0.075945 -165.173996 31.800104 -0.409019 33.175388 105.252777 -0.867270 4.015739 -18.963848 -5.401042 -1.088573 -0.806025 -26.258224 28.675795 126.765877 1.901145 -3.404547 -28.531254 9.004340 10.639388 
22.868130 14.295938 33.773853 -108.678001 8.838260 -49.775700 -26.457399 2.667910 -16.171000 23.584600 8.055290 -5.872850 3.568810 17.266899 -8.365710 10.825200 10.703000 -2.029540 2.000000 -2.000000 0.000000 40.665501 -52.101002 110.220001 50.049301 -0.302639 0.104862 0.048023 -0.032802 -148.718994 -2.000000 2.000000 0.000000 75.450600 23.875200 113.680000 -131.220993 0.131190 0.085736 -0.083346 0.076066 -165.222000 30.497057 -0.211064 31.560972 103.540436 -0.522610 3.998386 -10.021966 -6.394379 0.344617 -0.173126 -27.195925 27.975513 126.079498 1.812643 -3.434625 -26.655228 10.302282 10.437318 
22.625368 14.530612 33.753075 -109.374001 8.380470 -50.093800 -26.722601 2.361850 -16.659700 23.358299 8.134930 -6.155820 3.733380 17.269199 -8.042210 10.588900 10.795900 -2.024150 2.000000 -2.000000 0.000000 40.634201 -53.524601 112.688004 39.687901 -0.320057 0.087366 0.046142 -0.021946 -144.783005 -2.000000 2.000000 0.000000 76.037399 24.617201 113.875999 -130.684006 0.132089 0.086516 -0.083139 0.075680 -165.065994 29.018202 0.334982 30.145416 101.405998 -0.126823 3.966569 0.939889 -5.817785 1.835690 0.097801 -27.874218 27.518112 125.530914 1.729553 -3.437712 -23.602434 11.762760 9.935563 
22.343172 14.752707 33.750267 -110.056999 7.973930 -50.688499 -27.045799 2.015990 -17.114300 23.033800 8.302890 -6.438460 3.553110 17.536600 -7.928500 10.165200 10.970600 -2.116560 2.000000 -2.000000 0.000000 37.723999 -53.900200 117.831001 31.689800 -0.331181 0.071879 0.044989 -0.010685 -140.740005 -2.000000 2.000000 0.000000 77.122398 25.281000 114.189003 -129.960999 0.133310 0.087552 -0.082537 0.074545 -164.606995 27.537157 1.044988 29.372955 98.792564 0.349896 3.972140 11.868632 -2.479605 1.523969 -0.147348 -28.198320 27.589535 125.200249 1.663808 -3.441974 -19.380718 13.035447 9.078099 
21.986387 14.960420 33.771946 -110.816002 7.288930 -51.671902 -27.019800 1.903760 -17.654301 22.929300 8.957280 -6.700630 3.667460 18.040899 -8.020860 10.080800 11.195900 -2.215620 2.000000 -2.000000 0.000000 32.473099 -51.949001 124.262001 27.041300 -0.336619 0.062215 0.044635 -0.000903 -137.244003 -2.000000 2.000000 0.000000 78.277100 26.530300 114.884003 -129.365005 0.134326 0.088395 -0.081558 0.072649 -163.845993 26.662979 2.107210 29.560690 96.062218 0.846792 3.945613 18.193127 1.738531 -1.166985 -0.742269 -27.757267 28.361902 124.946068 1.576978 -3.434432 -13.814608 13.960749 7.828174 
21.540743 15.148698 33.815647 -111.407997 6.046160 -53.145599 -26.471901 2.314250 -18.316900 23.196501 10.253000 -6.872370 4.324530 18.748199 -8.337080 10.586000 11.485200 -2.278480 2.000000 -2.000000 0.000000 26.095400 -48.115898 127.802002 24.912399 -0.338843 0.057649 0.044723 0.005386 -134.998001 -2.000000 2.000000 0.000000 79.277702 28.316000 116.296997 -128.819000 0.135266 0.089159 -0.080269 0.070053 -162.809998 26.690689 3.802649 30.995365 93.608833 1.289009 3.901527 17.021885 4.432156 -3.189645 -1.582875 -25.957720 29.868509 124.610069 1.450670 -3.428978 -7.001296 14.531103 6.237360 
21.088692 15.336752 33.790371 -111.071999 5.042740 -55.156601 -25.884001 3.130240 -18.861601 23.705099 11.428500 -6.874390 4.992050 19.562099 -8.903790 11.303700 11.835100 -2.393390 2.000000 -2.000000 0.000000 18.794600 -43.635601 126.314003 23.955299 -0.339788 0.055570 0.044958 0.000455 -133.268997 -2.000000 2.000000 0.000000 80.152702 30.091200 118.203003 -128.272003 0.136214 0.089914 -0.078570 0.066440 -161.384995 26.206142 5.953828 33.399193 91.852875 1.698110 3.888517 10.842152 6.390412 -3.873981 -4.227042 -22.800083 32.101921 123.889221 1.290500 -3.439531 0.818374 15.078954 4.314301 
20.725279 15.547160 33.634220 -109.761002 5.292360 -57.465000 -25.624901 3.971860 -19.234699 24.297400 11.762700 -6.763790 5.342020 20.088301 -9.689020 11.919100 12.040100 -2.598490 2.000000 -2.000000 0.000000 11.572700 -37.954899 124.165001 23.877199 -0.339864 0.055400 0.044880 -0.000856 -133.738007 -2.000000 2.000000 0.000000 81.086899 31.475401 120.397003 -127.695999 0.137220 0.090700 -0.076823 0.062458 -159.832001 24.088963 7.733076 35.653572 90.423370 2.007024 3.873771 5.088580 9.160262 -4.526062 -9.129225 -19.538172 34.134506 122.655510 1.088566 -3.455436 6.320102 15.818850 2.688177 
20.431065 15.778690 33.402130 -108.134003 6.354460 -59.646900 -25.859100 4.501600 -19.730801 24.395000 11.605500 -6.802980 5.783520 20.188000 -10.197500 12.269000 12.048600 -2.825180 2.000000 -2.000000 0.000000 5.010130 -31.042000 123.302002 23.418200 -0.340303 0.054397 0.044804 -0.002358 -134.274994 -2.000000 2.000000 0.000000 82.197998 31.686300 123.508003 -127.022003 0.138407 0.091605 -0.075446 0.068858 -158.533005 21.011667 9.010638 36.819733 89.092789 2.301964 3.872173 1.718727 12.014621 -4.994454 -14.996640 -16.809448 34.975803 120.913979 0.868233 -3.521185 7.628500 16.795923 1.936711 
